<svg width="32" height="32" viewBox="0 0 32 32" fill="none" xmlns="http://www.w3.org/2000/svg">
<path d="M22.666 22.6533C20.866 22.6533 19.7327 23.2133 18.7327 23.7199C17.866 24.1599 17.1593 24.5199 15.9993 24.5199C14.7993 24.5199 14.1327 24.1866 13.266 23.7199C12.266 23.2133 11.1727 22.6533 9.33268 22.6533C7.49268 22.6533 6.39935 23.2133 5.39935 23.7199C4.82602 24.0133 4.31935 24.2666 3.70602 24.4133C3.10602 24.5466 2.66602 25.0266 2.66602 25.6266V25.7599C2.66602 26.5599 3.41268 27.1333 4.18602 26.9733C5.17268 26.7733 5.91935 26.3999 6.59935 26.0533C7.46602 25.6133 8.15935 25.2533 9.33268 25.2533C10.506 25.2533 11.1993 25.5866 12.066 26.0533C13.066 26.5599 14.1593 27.1199 15.9993 27.1199C17.8393 27.1199 18.9327 26.5599 19.9327 26.0533C20.7993 25.6133 21.506 25.2533 22.666 25.2533C23.866 25.2533 24.5327 25.5866 25.3993 26.0533C26.0927 26.3999 26.8393 26.7866 27.8393 26.9866C28.0195 27.0218 28.2051 27.0169 28.3832 26.9725C28.5612 26.928 28.7274 26.845 28.8698 26.7292C29.0122 26.6135 29.1275 26.4679 29.2075 26.3027C29.2875 26.1375 29.3302 25.9568 29.3327 25.7733V25.6533C29.3327 25.0399 28.8793 24.5599 28.2793 24.4266C27.666 24.2933 27.1727 24.0399 26.5993 23.7333C25.5993 23.2133 24.466 22.6533 22.666 22.6533ZM22.666 16.7199C20.866 16.7199 19.7327 17.2933 18.7327 17.7866C17.866 18.2133 17.1593 18.5866 15.9993 18.5866C14.7993 18.5866 14.1327 18.2533 13.266 17.7866C12.266 17.2799 11.1727 16.7199 9.33268 16.7199C7.49268 16.7199 6.39935 17.2933 5.39935 17.7866C4.82602 18.0666 4.31935 18.3333 3.69268 18.4799C3.10602 18.6133 2.66602 19.0933 2.66602 19.6933V19.8266C2.66609 20.0109 2.70725 20.1929 2.78648 20.3592C2.86572 20.5256 2.98105 20.6723 3.12408 20.7885C3.26711 20.9047 3.43425 20.9876 3.61333 21.0311C3.79242 21.0746 3.97894 21.0776 4.15935 21.0399C5.15935 20.8399 5.90602 20.4533 6.59935 20.1199C7.46602 19.6533 8.13268 19.3199 9.33268 19.3199C10.5327 19.3199 11.1993 19.6533 12.066 20.1199C13.066 20.6266 14.1593 21.1866 15.9993 21.1866C17.8393 21.1866 18.9327 20.6133 19.9327 20.1199C20.7993 19.6533 21.466 19.3199 22.666 19.3199C23.866 19.3199 24.5327 19.6533 25.3993 20.1199C26.0927 20.4666 26.8393 20.8533 27.8393 21.0533C28.0206 21.0886 28.2074 21.0835 28.3864 21.0383C28.5654 20.993 28.7322 20.9088 28.8749 20.7916C29.0176 20.6744 29.1326 20.5271 29.2117 20.3603C29.2909 20.1935 29.3322 20.0113 29.3327 19.8266V19.7066C29.3327 19.0933 28.8793 18.6133 28.2793 18.4799C27.666 18.3466 27.1727 18.0933 26.5993 17.7866C25.5993 17.2799 24.466 16.7199 22.666 16.7199ZM26.5993 5.94661C25.5993 5.43994 24.4927 4.87994 22.666 4.87994C20.8393 4.87994 19.7327 5.43994 18.7327 5.94661C17.866 6.37328 17.1593 6.74661 15.9993 6.74661C14.7993 6.74661 14.1327 6.41328 13.266 5.94661C12.266 5.45328 11.1727 4.87994 9.33268 4.87994C7.49268 4.87994 6.39935 5.43994 5.39935 5.94661C4.82602 6.23994 4.31935 6.49328 3.70602 6.63994C3.10602 6.77328 2.66602 7.25328 2.66602 7.85328V7.94661C2.66602 8.74661 3.38602 9.33328 4.15935 9.17328C5.15935 8.97328 5.90602 8.58661 6.59935 8.25328C7.46602 7.81328 8.15935 7.45328 9.33268 7.45328C10.506 7.45328 11.1993 7.78661 12.066 8.25328C13.066 8.75994 14.1593 9.31994 15.9993 9.31994C17.8393 9.31994 18.9327 8.74661 19.9327 8.25328C20.7993 7.82661 21.506 7.45328 22.666 7.45328C23.866 7.45328 24.5327 7.78661 25.3993 8.25328C26.0927 8.59994 26.8393 8.98661 27.8393 9.18661C28.0206 9.22197 28.2074 9.21685 28.3864 9.17161C28.5654 9.12638 28.7322 9.04215 28.8749 8.92496C29.0176 8.80776 29.1326 8.66048 29.2117 8.49366C29.2909 8.32683 29.3322 8.14459 29.3327 7.95994V7.83994C29.3327 7.22661 28.8793 6.74661 28.2793 6.61328C27.666 6.47994 27.1727 6.23994 26.5993 5.94661ZM22.666 10.7866C20.866 10.7866 19.7327 11.3599 18.7327 11.8533C17.866 12.3199 17.1993 12.6533 15.9993 12.6533C14.7993 12.6533 14.1327 12.3199 13.266 11.8533C12.266 11.3466 11.1727 10.7866 9.33268 10.7866C7.49268 10.7866 6.39935 11.3599 5.39935 11.8533C4.82602 12.1599 4.33268 12.4133 3.71935 12.5466C3.11935 12.6799 2.66602 13.1599 2.66602 13.7733V13.8933C2.66609 14.0776 2.70725 14.2595 2.78648 14.4259C2.86572 14.5923 2.98105 14.7389 3.12408 14.8551C3.26711 14.9714 3.43425 15.0542 3.61333 15.0977C3.79242 15.1412 3.97894 15.1443 4.15935 15.1066C5.15935 14.9066 5.90602 14.5199 6.59935 14.1866C7.46602 13.7599 8.17268 13.3866 9.33268 13.3866C10.4927 13.3866 11.1993 13.7199 12.066 14.1866C13.066 14.6933 14.1593 15.2533 15.9993 15.2533C17.8393 15.2533 18.9327 14.6799 19.9327 14.1866C20.7993 13.7599 21.506 13.3866 22.666 13.3866C23.866 13.3866 24.5327 13.7199 25.3993 14.1866C26.0927 14.5333 26.8393 14.9199 27.8393 15.1199C28.0195 15.1551 28.2051 15.1503 28.3832 15.1058C28.5612 15.0613 28.7274 14.9783 28.8698 14.8626C29.0122 14.7468 29.1275 14.6012 29.2075 14.436C29.2875 14.2709 29.3302 14.0901 29.3327 13.9066V13.7866C29.3327 13.1733 28.8793 12.6933 28.2793 12.5599C27.666 12.4266 27.1727 12.1733 26.5993 11.8666C25.5993 11.3466 24.466 10.7866 22.666 10.7866Z" fill="url(#paint0_linear_77_237)"/>
<defs>
<linearGradient id="paint0_linear_77_237" x1="15.9993" y1="4.87994" x2="16.6404" y2="24.1221" gradientUnits="userSpaceOnUse">
<stop stop-color="#FFBF00"/>
<stop offset="1" stop-color="#F2A60C"/>
</linearGradient>
</defs>
</svg>
