<svg width="32" height="32" viewBox="0 0 32 32" fill="none" xmlns="http://www.w3.org/2000/svg">
<g clip-path="url(#clip0_77_239)">
<path d="M25.3324 9.33331H24.239L21.9724 3.09331C21.7847 2.57878 21.4438 2.13418 20.9956 1.81947C20.5473 1.50476 20.0134 1.33508 19.4657 1.33331H17.3324C16.599 1.33331 15.999 1.93331 15.999 2.66665C15.999 3.39998 16.599 3.99998 17.3324 3.99998H19.4657L21.4124 9.33331H14.999L14.519 7.99998H14.639C15.3724 7.99998 15.9724 7.39998 15.9724 6.66665C15.9724 5.93331 15.3724 5.33331 14.639 5.33331H10.6657C9.93236 5.33331 9.33236 5.93331 9.33236 6.66665C9.33236 7.39998 9.93236 7.99998 10.6657 7.99998H11.6657L14.0924 14.6666H13.199C12.6124 11.6933 10.119 9.49331 6.99902 9.34665C3.26569 9.15998 -0.000976562 12.2666 -0.000976562 16C-0.000976562 19.7333 2.93236 22.6666 6.66569 22.6666C9.94569 22.6666 12.599 20.4133 13.199 17.3333H18.799C19.3857 20.3066 21.879 22.5066 24.999 22.6533C28.7324 22.8266 31.999 19.7333 31.999 15.9866C31.999 12.2666 29.0657 9.33331 25.3324 9.33331ZM7.99902 17.3333H10.4257C9.86569 18.9733 8.29236 20.1066 6.39902 19.9866C4.41236 19.8666 2.75902 18.1866 2.66569 16.1866C2.57236 13.8533 4.35902 12 6.66569 12C8.43902 12 9.89236 13.1066 10.4257 14.6666H7.99902C7.26569 14.6666 6.66569 15.2666 6.66569 16C6.66569 16.7333 7.26569 17.3333 7.99902 17.3333ZM18.799 14.6666H16.9324L15.959 12H19.999C19.4124 12.7733 18.9857 13.6666 18.799 14.6666ZM25.1724 20C23.119 19.92 21.3857 18.1733 21.3324 16.1066C21.3057 14.8266 21.8524 13.7066 22.7324 12.96L23.559 15.2266C23.8124 15.92 24.5724 16.28 25.2657 16.0266C25.959 15.7733 26.319 15.0133 26.0657 14.32L25.2257 12.0133L25.239 12C25.7736 11.9818 26.3063 12.072 26.805 12.2654C27.3038 12.4588 27.7581 12.7512 28.1407 13.1251C28.5232 13.4989 28.8261 13.9464 29.0309 14.4405C29.2357 14.9346 29.3383 15.4651 29.3324 16C29.3324 18.2933 27.4924 20.08 25.1724 20ZM14.6657 26.6666H9.33236L17.3324 30.6666V28H22.6657L14.6657 24V26.6666Z" fill="url(#paint0_linear_77_239)"/>
</g>
<defs>
<linearGradient id="paint0_linear_77_239" x1="15.999" y1="1.33331" x2="16.9282" y2="26.7068" gradientUnits="userSpaceOnUse">
<stop stop-color="#FFBF00"/>
<stop offset="1" stop-color="#F2A60C"/>
</linearGradient>
<clipPath id="clip0_77_239">
<rect width="32" height="32" fill="white"/>
</clipPath>
</defs>
</svg>
