<svg width="32" height="32" viewBox="0 0 32 32" fill="none" xmlns="http://www.w3.org/2000/svg">
<path d="M15.9997 10.6666C13.053 10.6666 10.6663 13.0533 10.6663 16C10.6663 18.9466 13.053 21.3333 15.9997 21.3333C18.9463 21.3333 21.333 18.9466 21.333 16C21.333 13.0533 18.9463 10.6666 15.9997 10.6666ZM27.9197 14.6666C27.6177 11.9628 26.4052 9.44203 24.4814 7.51824C22.5576 5.59445 20.0368 4.382 17.333 4.07998V2.66665C17.333 1.93331 16.733 1.33331 15.9997 1.33331C15.2663 1.33331 14.6663 1.93331 14.6663 2.66665V4.07998C11.9625 4.382 9.44172 5.59445 7.51793 7.51824C5.59414 9.44203 4.38169 11.9628 4.07967 14.6666H2.66634C1.93301 14.6666 1.33301 15.2666 1.33301 16C1.33301 16.7333 1.93301 17.3333 2.66634 17.3333H4.07967C4.38169 20.0372 5.59414 22.5579 7.51793 24.4817C9.44172 26.4055 11.9625 27.618 14.6663 27.92V29.3333C14.6663 30.0666 15.2663 30.6666 15.9997 30.6666C16.733 30.6666 17.333 30.0666 17.333 29.3333V27.92C20.0368 27.618 22.5576 26.4055 24.4814 24.4817C26.4052 22.5579 27.6177 20.0372 27.9197 17.3333H29.333C30.0663 17.3333 30.6663 16.7333 30.6663 16C30.6663 15.2666 30.0663 14.6666 29.333 14.6666H27.9197ZM15.9997 25.3333C10.8397 25.3333 6.66634 21.16 6.66634 16C6.66634 10.84 10.8397 6.66665 15.9997 6.66665C21.1597 6.66665 25.333 10.84 25.333 16C25.333 21.16 21.1597 25.3333 15.9997 25.3333Z" fill="url(#paint0_linear_77_228)"/>
<defs>
<linearGradient id="paint0_linear_77_228" x1="15.9997" y1="1.33331" x2="17.013" y2="26.7003" gradientUnits="userSpaceOnUse">
<stop stop-color="#FFBF00"/>
<stop offset="1" stop-color="#F2A60C"/>
</linearGradient>
</defs>
</svg>
