<svg width="18" height="10" viewBox="0 0 18 10" fill="none" xmlns="http://www.w3.org/2000/svg">
<path fill-rule="evenodd" clip-rule="evenodd" d="M11.2557 0.372671C11.6022 -0.0574231 12.2317 -0.125218 12.6618 0.221246L17.6273 4.22125C17.863 4.41108 18 4.6974 18 5C18 5.3026 17.863 5.58892 17.6273 5.77875L12.6618 9.77875C12.2317 10.1252 11.6022 10.0574 11.2557 9.62733C10.9093 9.19724 10.9771 8.56771 11.4072 8.22125L14.1646 6H1C0.447715 6 0 5.55229 0 5C0 4.44772 0.447715 4 1 4H14.1646L11.4072 1.77875C10.9771 1.43229 10.9093 0.802765 11.2557 0.372671Z" fill="#664400"/>
</svg>
