<svg width="18" height="14" viewBox="0 0 18 14" fill="none" xmlns="http://www.w3.org/2000/svg">
<path d="M15.667 0.333H2.33299C1.41699 0.333 0.674992 1.083 0.674992 2L0.666992 12C0.666992 12.917 1.41699 13.667 2.33299 13.667H15.667C16.583 13.667 17.333 12.917 17.333 12V2C17.333 1.083 16.583 0.333 15.667 0.333ZM15.333 3.875L9.44199 7.559C9.30909 7.64084 9.15607 7.68417 8.99999 7.68417C8.84391 7.68417 8.6909 7.64084 8.55799 7.559L2.66699 3.875C2.5846 3.82751 2.51261 3.7639 2.45534 3.68798C2.39807 3.61205 2.35668 3.52537 2.33364 3.4331C2.3106 3.34082 2.30639 3.24486 2.32126 3.15092C2.33613 3.05699 2.36977 2.96701 2.42017 2.88636C2.47058 2.80572 2.53671 2.73605 2.61464 2.68152C2.69256 2.627 2.78066 2.58873 2.8737 2.569C2.96673 2.54927 3.06279 2.54849 3.15613 2.5667C3.24948 2.58492 3.3382 2.62175 3.41699 2.675L8.99999 6.167L14.583 2.675C14.6618 2.62175 14.7505 2.58492 14.8439 2.5667C14.9372 2.54849 15.0332 2.54927 15.1263 2.569C15.2193 2.58873 15.3074 2.627 15.3853 2.68152C15.4633 2.73605 15.5294 2.80572 15.5798 2.88636C15.6302 2.96701 15.6639 3.05699 15.6787 3.15092C15.6936 3.24486 15.6894 3.34082 15.6663 3.4331C15.6433 3.52537 15.6019 3.61205 15.5446 3.68798C15.4874 3.7639 15.4154 3.82751 15.333 3.875Z" fill="url(#paint0_linear_78_555)"/>
<defs>
<linearGradient id="paint0_linear_78_555" x1="8.99999" y1="0.333" x2="9.36875" y2="11.8706" gradientUnits="userSpaceOnUse">
<stop stop-color="#FFBF00"/>
<stop offset="1" stop-color="#F2A60C"/>
</linearGradient>
</defs>
</svg>
