<svg width="161" height="50" viewBox="0 0 161 50" fill="none" xmlns="http://www.w3.org/2000/svg">
<g clip-path="url(#clip0_38_43)">
<path d="M28.8549 10.784L23.5245 39.082H15.866L17.8119 28.864H9.5627L7.65619 39.082H0L5.37323 10.784H12.9889L10.7048 22.732H18.954L21.2404 10.784H28.8549ZM44.5622 39.082L44.8171 32.912H37.7516L35.6783 39.082H27.597L38.4709 10.784H52.4316L52.6018 39.082H44.5622ZM42.8283 17.662L39.4867 27.645H45.029L45.4935 17.663L42.8283 17.662ZM85.4609 10.784L80.1293 39.082H72.4708L67.1416 23.598L64.2645 39.083H56.6048L61.978 10.784H69.8474L75.0943 25.248L77.8429 10.784H85.4609ZM103.327 10.784C107.022 10.784 109.66 11.649 111.238 13.378C112.395 14.688 112.972 16.326 112.972 18.291C112.972 18.999 112.903 19.745 112.763 20.531L111.112 29.296C110.548 32.256 109.165 34.628 106.965 36.41C104.765 38.192 101.916 39.082 98.4173 39.082H86.106L91.4804 10.784H103.327ZM100.661 16.916H97.9112L94.9078 32.95H98.927C100.252 32.95 101.282 32.622 102.015 31.968C102.777 31.286 103.298 30.186 103.579 28.667L104.808 22.221C104.914 21.701 104.971 21.175 104.977 20.648C104.977 18.158 103.539 16.916 100.661 16.916ZM135.648 39.082H114.408L119.784 10.784H141.023L139.838 16.916H126.215L125.242 22.222H136.496L135.312 28.352H124.057L123.211 32.951H136.835L135.648 39.082ZM159.815 39.082H140.522L145.896 10.784H153.512L149.323 32.951H161L159.815 39.082ZM85.0995 44.118H158.7L156.4 50H82.8003L85.0995 44.118ZM8.05 0H88.55L86.2497 5.882H5.74967L8.05 0Z" fill="#9C9C9C"/>
</g>
<defs>
<clipPath id="clip0_38_43">
<rect width="161" height="50" fill="white"/>
</clipPath>
</defs>
</svg>
