<svg width="40" height="40" viewBox="0 0 40 40" fill="none" xmlns="http://www.w3.org/2000/svg">
<path d="M3.07692 1.53846C3.07692 0.688792 2.38813 -7.15256e-07 1.53846 -7.15256e-07C0.688793 -7.15256e-07 0 0.688792 0 1.53846C0 2.38813 0.688793 3.07692 1.53846 3.07692C2.38813 3.07692 3.07692 2.38813 3.07692 1.53846Z" fill="#808080" fill-opacity="0.3"/>
<path d="M12.3077 10.7692C12.3077 9.91956 11.6189 9.23077 10.7692 9.23077C9.91956 9.23077 9.23077 9.91956 9.23077 10.7692C9.23077 11.6189 9.91956 12.3077 10.7692 12.3077C11.6189 12.3077 12.3077 11.6189 12.3077 10.7692Z" fill="#808080" fill-opacity="0.3"/>
<path d="M12.3077 1.53846C12.3077 0.688792 11.6189 -7.15256e-07 10.7692 -7.15256e-07C9.91956 -7.15256e-07 9.23077 0.688792 9.23077 1.53846C9.23077 2.38813 9.91956 3.07692 10.7692 3.07692C11.6189 3.07692 12.3077 2.38813 12.3077 1.53846Z" fill="#808080" fill-opacity="0.3"/>
<path d="M21.5385 20C21.5385 19.1503 20.8497 18.4615 20 18.4615C19.1503 18.4615 18.4615 19.1503 18.4615 20C18.4615 20.8497 19.1503 21.5385 20 21.5385C20.8497 21.5385 21.5385 20.8497 21.5385 20Z" fill="#808080" fill-opacity="0.3"/>
<path d="M21.5385 10.7692C21.5385 9.91956 20.8497 9.23077 20 9.23077C19.1503 9.23077 18.4615 9.91956 18.4615 10.7692C18.4615 11.6189 19.1503 12.3077 20 12.3077C20.8497 12.3077 21.5385 11.6189 21.5385 10.7692Z" fill="#808080" fill-opacity="0.3"/>
<path d="M21.5385 1.53846C21.5385 0.688792 20.8497 -7.15256e-07 20 -7.15256e-07C19.1503 -7.15256e-07 18.4615 0.688792 18.4615 1.53846C18.4615 2.38813 19.1503 3.07692 20 3.07692C20.8497 3.07692 21.5385 2.38813 21.5385 1.53846Z" fill="#808080" fill-opacity="0.3"/>
<path d="M30.7692 29.2308C30.7692 28.3811 30.0804 27.6923 29.2308 27.6923C28.3811 27.6923 27.6923 28.3811 27.6923 29.2308C27.6923 30.0804 28.3811 30.7692 29.2308 30.7692C30.0804 30.7692 30.7692 30.0804 30.7692 29.2308Z" fill="#808080" fill-opacity="0.3"/>
<path d="M30.7692 20C30.7692 19.1503 30.0804 18.4615 29.2308 18.4615C28.3811 18.4615 27.6923 19.1503 27.6923 20C27.6923 20.8497 28.3811 21.5385 29.2308 21.5385C30.0804 21.5385 30.7692 20.8497 30.7692 20Z" fill="#808080" fill-opacity="0.3"/>
<path d="M30.7692 10.7692C30.7692 9.91956 30.0804 9.23077 29.2308 9.23077C28.3811 9.23077 27.6923 9.91956 27.6923 10.7692C27.6923 11.6189 28.3811 12.3077 29.2308 12.3077C30.0804 12.3077 30.7692 11.6189 30.7692 10.7692Z" fill="#808080" fill-opacity="0.3"/>
<path d="M30.7692 1.53846C30.7692 0.688792 30.0804 -7.15256e-07 29.2308 -7.15256e-07C28.3811 -7.15256e-07 27.6923 0.688792 27.6923 1.53846C27.6923 2.38813 28.3811 3.07692 29.2308 3.07692C30.0804 3.07692 30.7692 2.38813 30.7692 1.53846Z" fill="#808080" fill-opacity="0.3"/>
<path d="M40 38.4615C40 37.6119 39.3112 36.9231 38.4615 36.9231C37.6119 36.9231 36.9231 37.6119 36.9231 38.4615C36.9231 39.3112 37.6119 40 38.4615 40C39.3112 40 40 39.3112 40 38.4615Z" fill="#808080" fill-opacity="0.3"/>
<path d="M40 29.2308C40 28.3811 39.3112 27.6923 38.4615 27.6923C37.6119 27.6923 36.9231 28.3811 36.9231 29.2308C36.9231 30.0804 37.6119 30.7692 38.4615 30.7692C39.3112 30.7692 40 30.0804 40 29.2308Z" fill="#808080" fill-opacity="0.3"/>
<path d="M40 20C40 19.1503 39.3112 18.4615 38.4615 18.4615C37.6119 18.4615 36.9231 19.1503 36.9231 20C36.9231 20.8497 37.6119 21.5385 38.4615 21.5385C39.3112 21.5385 40 20.8497 40 20Z" fill="#808080" fill-opacity="0.3"/>
<path d="M40 10.7692C40 9.91956 39.3112 9.23077 38.4615 9.23077C37.6119 9.23077 36.9231 9.91956 36.9231 10.7692C36.9231 11.6189 37.6119 12.3077 38.4615 12.3077C39.3112 12.3077 40 11.6189 40 10.7692Z" fill="#808080" fill-opacity="0.3"/>
<path d="M40 1.53846C40 0.688792 39.3112 -7.15256e-07 38.4615 -7.15256e-07C37.6119 -7.15256e-07 36.9231 0.688792 36.9231 1.53846C36.9231 2.38813 37.6119 3.07692 38.4615 3.07692C39.3112 3.07692 40 2.38813 40 1.53846Z" fill="#808080" fill-opacity="0.3"/>
</svg>
