<svg width="40" height="40" viewBox="0 0 40 40" fill="none" xmlns="http://www.w3.org/2000/svg">
<path d="M36.9231 1.53846C36.9231 0.688791 37.6119 0 38.4615 0C39.3112 0 40 0.688791 40 1.53846C40 2.38813 39.3112 3.07692 38.4615 3.07692C37.6119 3.07692 36.9231 2.38813 36.9231 1.53846Z" fill="#808080" fill-opacity="0.3"/>
<path d="M27.6923 10.7692C27.6923 9.91956 28.3811 9.23077 29.2308 9.23077C30.0804 9.23077 30.7692 9.91956 30.7692 10.7692C30.7692 11.6189 30.0804 12.3077 29.2308 12.3077C28.3811 12.3077 27.6923 11.6189 27.6923 10.7692Z" fill="#808080" fill-opacity="0.3"/>
<path d="M27.6923 1.53846C27.6923 0.688791 28.3811 0 29.2308 0C30.0804 0 30.7692 0.688791 30.7692 1.53846C30.7692 2.38813 30.0804 3.07692 29.2308 3.07692C28.3811 3.07692 27.6923 2.38813 27.6923 1.53846Z" fill="#808080" fill-opacity="0.3"/>
<path d="M18.4615 20C18.4615 19.1503 19.1503 18.4615 20 18.4615C20.8497 18.4615 21.5385 19.1503 21.5385 20C21.5385 20.8497 20.8497 21.5385 20 21.5385C19.1503 21.5385 18.4615 20.8497 18.4615 20Z" fill="#808080" fill-opacity="0.3"/>
<path d="M18.4615 10.7692C18.4615 9.91956 19.1503 9.23077 20 9.23077C20.8497 9.23077 21.5385 9.91956 21.5385 10.7692C21.5385 11.6189 20.8497 12.3077 20 12.3077C19.1503 12.3077 18.4615 11.6189 18.4615 10.7692Z" fill="#808080" fill-opacity="0.3"/>
<path d="M18.4615 1.53846C18.4615 0.688791 19.1503 0 20 0C20.8497 0 21.5385 0.688791 21.5385 1.53846C21.5385 2.38813 20.8497 3.07692 20 3.07692C19.1503 3.07692 18.4615 2.38813 18.4615 1.53846Z" fill="#808080" fill-opacity="0.3"/>
<path d="M9.23077 29.2308C9.23077 28.3811 9.91956 27.6923 10.7692 27.6923C11.6189 27.6923 12.3077 28.3811 12.3077 29.2308C12.3077 30.0804 11.6189 30.7692 10.7692 30.7692C9.91956 30.7692 9.23077 30.0804 9.23077 29.2308Z" fill="#808080" fill-opacity="0.3"/>
<path d="M9.23077 20C9.23077 19.1503 9.91956 18.4615 10.7692 18.4615C11.6189 18.4615 12.3077 19.1503 12.3077 20C12.3077 20.8497 11.6189 21.5385 10.7692 21.5385C9.91956 21.5385 9.23077 20.8497 9.23077 20Z" fill="#808080" fill-opacity="0.3"/>
<path d="M9.23077 10.7692C9.23077 9.91956 9.91956 9.23077 10.7692 9.23077C11.6189 9.23077 12.3077 9.91956 12.3077 10.7692C12.3077 11.6189 11.6189 12.3077 10.7692 12.3077C9.91956 12.3077 9.23077 11.6189 9.23077 10.7692Z" fill="#808080" fill-opacity="0.3"/>
<path d="M9.23077 1.53846C9.23077 0.688791 9.91956 0 10.7692 0C11.6189 0 12.3077 0.688791 12.3077 1.53846C12.3077 2.38813 11.6189 3.07692 10.7692 3.07692C9.91956 3.07692 9.23077 2.38813 9.23077 1.53846Z" fill="#808080" fill-opacity="0.3"/>
<path d="M0 38.4615C0 37.6119 0.688791 36.9231 1.53846 36.9231C2.38813 36.9231 3.07692 37.6119 3.07692 38.4615C3.07692 39.3112 2.38813 40 1.53846 40C0.688791 40 0 39.3112 0 38.4615Z" fill="#808080" fill-opacity="0.3"/>
<path d="M0 29.2308C0 28.3811 0.688791 27.6923 1.53846 27.6923C2.38813 27.6923 3.07692 28.3811 3.07692 29.2308C3.07692 30.0804 2.38813 30.7692 1.53846 30.7692C0.688791 30.7692 0 30.0804 0 29.2308Z" fill="#808080" fill-opacity="0.3"/>
<path d="M0 20C0 19.1503 0.688791 18.4615 1.53846 18.4615C2.38813 18.4615 3.07692 19.1503 3.07692 20C3.07692 20.8497 2.38813 21.5385 1.53846 21.5385C0.688791 21.5385 0 20.8497 0 20Z" fill="#808080" fill-opacity="0.3"/>
<path d="M0 10.7692C0 9.91956 0.688791 9.23077 1.53846 9.23077C2.38813 9.23077 3.07692 9.91956 3.07692 10.7692C3.07692 11.6189 2.38813 12.3077 1.53846 12.3077C0.688791 12.3077 0 11.6189 0 10.7692Z" fill="#808080" fill-opacity="0.3"/>
<path d="M0 1.53846C0 0.688791 0.688791 0 1.53846 0C2.38813 0 3.07692 0.688791 3.07692 1.53846C3.07692 2.38813 2.38813 3.07692 1.53846 3.07692C0.688791 3.07692 0 2.38813 0 1.53846Z" fill="#808080" fill-opacity="0.3"/>
</svg>
