<svg width="40" height="40" viewBox="0 0 40 40" fill="none" xmlns="http://www.w3.org/2000/svg">
<path d="M36.9231 38.4615C36.9231 39.3112 37.6119 40 38.4615 40C39.3112 40 40 39.3112 40 38.4615C40 37.6119 39.3112 36.9231 38.4615 36.9231C37.6119 36.9231 36.9231 37.6119 36.9231 38.4615Z" fill="#808080" fill-opacity="0.3"/>
<path d="M27.6923 29.2308C27.6923 30.0804 28.3811 30.7692 29.2308 30.7692C30.0804 30.7692 30.7692 30.0804 30.7692 29.2308C30.7692 28.3811 30.0804 27.6923 29.2308 27.6923C28.3811 27.6923 27.6923 28.3811 27.6923 29.2308Z" fill="#808080" fill-opacity="0.3"/>
<path d="M27.6923 38.4615C27.6923 39.3112 28.3811 40 29.2308 40C30.0804 40 30.7692 39.3112 30.7692 38.4615C30.7692 37.6119 30.0804 36.9231 29.2308 36.9231C28.3811 36.9231 27.6923 37.6119 27.6923 38.4615Z" fill="#808080" fill-opacity="0.3"/>
<path d="M18.4615 20C18.4615 20.8497 19.1503 21.5385 20 21.5385C20.8497 21.5385 21.5385 20.8497 21.5385 20C21.5385 19.1503 20.8497 18.4615 20 18.4615C19.1503 18.4615 18.4615 19.1503 18.4615 20Z" fill="#808080" fill-opacity="0.3"/>
<path d="M18.4615 29.2308C18.4615 30.0804 19.1503 30.7692 20 30.7692C20.8497 30.7692 21.5385 30.0804 21.5385 29.2308C21.5385 28.3811 20.8497 27.6923 20 27.6923C19.1503 27.6923 18.4615 28.3811 18.4615 29.2308Z" fill="#808080" fill-opacity="0.3"/>
<path d="M18.4615 38.4615C18.4615 39.3112 19.1503 40 20 40C20.8497 40 21.5385 39.3112 21.5385 38.4615C21.5385 37.6119 20.8497 36.9231 20 36.9231C19.1503 36.9231 18.4615 37.6119 18.4615 38.4615Z" fill="#808080" fill-opacity="0.3"/>
<path d="M9.23077 10.7692C9.23077 11.6189 9.91956 12.3077 10.7692 12.3077C11.6189 12.3077 12.3077 11.6189 12.3077 10.7692C12.3077 9.91956 11.6189 9.23077 10.7692 9.23077C9.91956 9.23077 9.23077 9.91956 9.23077 10.7692Z" fill="#808080" fill-opacity="0.3"/>
<path d="M9.23077 20C9.23077 20.8497 9.91956 21.5385 10.7692 21.5385C11.6189 21.5385 12.3077 20.8497 12.3077 20C12.3077 19.1503 11.6189 18.4615 10.7692 18.4615C9.91956 18.4615 9.23077 19.1503 9.23077 20Z" fill="#808080" fill-opacity="0.3"/>
<path d="M9.23077 29.2308C9.23077 30.0804 9.91956 30.7692 10.7692 30.7692C11.6189 30.7692 12.3077 30.0804 12.3077 29.2308C12.3077 28.3811 11.6189 27.6923 10.7692 27.6923C9.91956 27.6923 9.23077 28.3811 9.23077 29.2308Z" fill="#808080" fill-opacity="0.3"/>
<path d="M9.23077 38.4615C9.23077 39.3112 9.91956 40 10.7692 40C11.6189 40 12.3077 39.3112 12.3077 38.4615C12.3077 37.6119 11.6189 36.9231 10.7692 36.9231C9.91956 36.9231 9.23077 37.6119 9.23077 38.4615Z" fill="#808080" fill-opacity="0.3"/>
<path d="M-7.15256e-07 1.53846C-7.15256e-07 2.38813 0.688792 3.07692 1.53846 3.07692C2.38813 3.07692 3.07692 2.38813 3.07692 1.53846C3.07692 0.688793 2.38813 0 1.53846 0C0.688792 0 -7.15256e-07 0.688793 -7.15256e-07 1.53846Z" fill="#808080" fill-opacity="0.3"/>
<path d="M-7.15256e-07 10.7692C-7.15256e-07 11.6189 0.688792 12.3077 1.53846 12.3077C2.38813 12.3077 3.07692 11.6189 3.07692 10.7692C3.07692 9.91956 2.38813 9.23077 1.53846 9.23077C0.688792 9.23077 -7.15256e-07 9.91956 -7.15256e-07 10.7692Z" fill="#808080" fill-opacity="0.3"/>
<path d="M-7.15256e-07 20C-7.15256e-07 20.8497 0.688792 21.5385 1.53846 21.5385C2.38813 21.5385 3.07692 20.8497 3.07692 20C3.07692 19.1503 2.38813 18.4615 1.53846 18.4615C0.688792 18.4615 -7.15256e-07 19.1503 -7.15256e-07 20Z" fill="#808080" fill-opacity="0.3"/>
<path d="M-7.15256e-07 29.2308C-7.15256e-07 30.0804 0.688792 30.7692 1.53846 30.7692C2.38813 30.7692 3.07692 30.0804 3.07692 29.2308C3.07692 28.3811 2.38813 27.6923 1.53846 27.6923C0.688792 27.6923 -7.15256e-07 28.3811 -7.15256e-07 29.2308Z" fill="#808080" fill-opacity="0.3"/>
<path d="M-7.15256e-07 38.4615C-7.15256e-07 39.3112 0.688792 40 1.53846 40C2.38813 40 3.07692 39.3112 3.07692 38.4615C3.07692 37.6119 2.38813 36.9231 1.53846 36.9231C0.688792 36.9231 -7.15256e-07 37.6119 -7.15256e-07 38.4615Z" fill="#808080" fill-opacity="0.3"/>
</svg>
